<?xml version="1.0" encoding="utf-8"?>
<!-- Generator: Adobe Illustrator 19.0.0, SVG Export Plug-In . SVG Version: 6.00 Build 0)  -->
<svg version="1.1" id="Layer_1" xmlns="http://www.w3.org/2000/svg" xmlns:xlink="http://www.w3.org/1999/xlink" x="0px" y="0px"
	 viewBox="-447 249 64 64" style="enable-background:new -447 249 64 64;" xml:space="preserve">
<style type="text/css">
	.st0{fill:#FFFFFF;}
</style>
<g id="XMLID_1_">
	<g>
		<path class="st0" d="M-391.6,274.3c3.7,0,6.6,3,6.6,6.6s-3,6.7-6.6,6.7h-11.8c-1.3-1.9-3.6-3.2-6.2-3.1c-0.4-5.1-3.9-9.4-8.5-11.2
			c1.4-4.8,5.8-8.2,10.9-8.2c5.5,0,10.1,3.9,11.1,9.3c0,0.3,0.2,0.6,0.5,0.7c0.3,0.1,0.6,0.1,0.9,0
			C-393.7,274.5-392.7,274.3-391.6,274.3z"/>
		<path class="st0" d="M-404.1,291.7c0,2.9-2.4,5.2-5.2,5.2h-29c-3.7,0-6.7-3-6.7-6.7c0-3.7,3-6.6,6.7-6.6c1,0,2,0.2,3,0.7
			c0.3,0.1,0.6,0.1,0.9,0c0.3-0.1,0.5-0.4,0.5-0.7c1-5.4,5.6-9.3,11.1-9.3c6.2,0,11.3,5,11.3,11.2c0,0.3,0.1,0.6,0.4,0.8
			c0.2,0.2,0.5,0.3,0.8,0.2c0.3-0.1,0.6-0.1,1-0.1C-406.5,286.5-404.1,288.8-404.1,291.7z"/>
		<path d="M-391.6,274.3c-1.1,0-2.1,0.2-3,0.7c-0.3,0.1-0.6,0.1-0.9,0c-0.3-0.1-0.5-0.4-0.5-0.7c-1-5.4-5.6-9.3-11.1-9.3
			c-5.1,0-9.5,3.4-10.9,8.2c4.6,1.8,8,6.1,8.5,11.2c2.6-0.1,4.8,1.2,6.2,3.1h11.8c3.7,0,6.6-3,6.6-6.7S-388,274.3-391.6,274.3z
			 M-435.6,282.1c1.6-5.7,6.8-9.7,12.8-9.7c1,0,1.9,0.1,2.9,0.3c1.6-5.6,6.8-9.7,12.8-9.7c6,0,11.2,4,12.8,9.7
			c0.9-0.3,1.8-0.4,2.7-0.4c4.8,0,8.6,3.9,8.6,8.6s-3.9,8.7-8.6,8.7h-10.8c0.2,0.7,0.3,1.4,0.3,2.1c0,4-3.2,7.2-7.2,7.2h-29
			c-4.8,0-8.7-3.9-8.7-8.7c0-4.8,3.9-8.6,8.7-8.6C-437.4,281.7-436.5,281.8-435.6,282.1z M-433.9,283.6c-0.1,0.3-0.3,0.6-0.5,0.7
			c-0.3,0.1-0.6,0.1-0.9,0c-0.9-0.5-1.9-0.7-3-0.7c-3.7,0-6.7,3-6.7,6.6c0,3.7,3,6.7,6.7,6.7h29c2.9,0,5.2-2.4,5.2-5.2
			c0-2.9-2.4-5.2-5.2-5.2c-0.3,0-0.6,0-1,0.1c-0.3,0.1-0.6,0-0.8-0.2c-0.2-0.2-0.4-0.5-0.4-0.8c0-6.2-5.1-11.2-11.3-11.2
			C-428.3,274.4-433,278.3-433.9,283.6z"/>
	</g>
	<g>
	</g>
</g>
</svg>
